<svg width="152" height="139" viewBox="0 0 152 139" fill="none" xmlns="http://www.w3.org/2000/svg">
<path d="M3.07556 83.9593L150 83.9593" stroke="#FA5A00" stroke-width="2.36628" stroke-linecap="round"/>
<mask id="mask0_51_344" style="mask-type:alpha" maskUnits="userSpaceOnUse" x="110" y="99" width="34" height="27">
<path d="M142.366 99.6341C141.867 99.2227 141.211 99.0175 140.557 99.0175C139.902 99.0175 139.246 99.2227 138.747 99.6341L126.982 109.305L115.218 99.6341C114.718 99.2227 114.062 99.0175 113.408 99.0175C112.754 99.0175 112.098 99.2227 111.599 99.6341C110.599 100.456 110.599 101.788 111.599 102.609L123.364 112.28L112.202 121.455C111.202 122.276 111.202 123.608 112.202 124.43C113.202 125.252 114.822 125.252 115.822 124.43L126.983 115.255L138.144 124.43C139.143 125.252 140.764 125.252 141.763 124.43C142.763 123.609 142.763 122.276 141.763 121.455L130.601 112.28L142.366 102.61C143.366 101.788 143.366 100.456 142.366 99.6341Z" fill="#FA5A00"/>
</mask>
<g mask="url(#mask0_51_344)">
<rect x="149.592" y="112.107" width="46.9267" height="13.1037" transform="rotate(-180 149.592 112.107)" fill="#FA5A00"/>
</g>
<mask id="mask1_51_344" style="mask-type:alpha" maskUnits="userSpaceOnUse" x="110" y="99" width="34" height="27">
<path d="M111.599 124.43C112.098 124.841 112.754 125.047 113.408 125.047C114.063 125.047 114.719 124.841 115.218 124.43L126.983 114.759L138.747 124.43C139.247 124.841 139.903 125.047 140.557 125.047C141.211 125.047 141.867 124.841 142.367 124.43C143.366 123.608 143.366 122.276 142.367 121.455L130.601 111.784L141.763 102.609C142.763 101.788 142.763 100.456 141.763 99.6342C140.764 98.8123 139.143 98.8123 138.143 99.6342L126.982 108.809L115.821 99.6339C114.822 98.812 113.201 98.812 112.202 99.6339C111.203 100.455 111.203 101.788 112.202 102.609L123.364 111.784L111.599 121.454C110.599 122.276 110.599 123.608 111.599 124.43Z" fill="#FA5A00"/>
</mask>
<g mask="url(#mask1_51_344)">
<rect x="104.373" y="111.957" width="46.9267" height="13.1037" fill="#FA5A00"/>
</g>
<path d="M19.1389 125.376L19.0936 103.087H7.33915V98.7473H36.9062V103.087H25.1065V125.376H19.1389ZM46.5058 125.376C44.4563 125.376 42.9494 125.285 41.9849 125.105C41.0204 124.924 40.5382 124.713 40.5382 124.472L42.3466 120.538C43.0398 120.659 44.7577 120.779 47.5005 120.9C50.2733 120.99 54.0709 121.036 58.8933 121.036H59.7523C61.0483 121.036 61.9675 120.81 62.51 120.358C63.0525 119.875 63.3238 119.077 63.3238 117.961V117.057C63.3238 116.002 63.0978 115.249 62.6457 114.797C62.2237 114.345 61.2592 114.119 59.7523 114.119H49.2636C46.2195 114.119 44.0042 113.561 42.6178 112.446C41.2314 111.301 40.5382 109.447 40.5382 106.885V106.162C40.5382 104.836 40.7793 103.615 41.2615 102.5C41.7739 101.385 42.6329 100.495 43.8385 99.8324C45.0441 99.1392 46.7017 98.7926 48.8115 98.7926H61.1085C63.158 98.7926 64.8157 98.898 66.0816 99.109C67.3475 99.32 67.9804 99.546 67.9804 99.7872L67.0762 103.585C66.2926 103.494 64.5143 103.404 61.7415 103.314C58.9686 103.193 55.2464 103.133 50.5747 103.133L50.0774 103.087C48.691 103.087 47.7566 103.374 47.2744 103.946C46.7922 104.489 46.536 105.182 46.5058 106.026V106.795C46.5058 107.789 46.7771 108.543 47.3196 109.055C47.8923 109.537 48.8266 109.778 50.1226 109.778H60.1591C62.0881 109.778 63.7307 109.974 65.087 110.366C66.4433 110.758 67.4831 111.481 68.2064 112.536C68.9298 113.561 69.2915 115.083 69.2915 117.102V117.826C69.2915 120.086 68.7037 121.91 67.5283 123.296C66.383 124.683 64.3787 125.376 61.5154 125.376H46.5058ZM80.6779 125.376C78.6284 125.376 77.1214 125.285 76.157 125.105C75.1925 124.924 74.7103 124.713 74.7103 124.472L76.5186 120.538C77.2119 120.659 78.9298 120.779 81.6725 120.9C84.4454 120.99 88.243 121.036 93.0654 121.036H93.9243C95.2203 121.036 96.1396 120.81 96.6821 120.358C97.2246 119.875 97.4959 119.077 97.4959 117.961V117.057C97.4959 116.002 97.2698 115.249 96.8178 114.797C96.3958 114.345 95.4313 114.119 93.9243 114.119H83.4357C80.3916 114.119 78.1763 113.561 76.7899 112.446C75.4035 111.301 74.7103 109.447 74.7103 106.885V106.162C74.7103 104.836 74.9514 103.615 75.4336 102.5C75.946 101.385 76.805 100.495 78.0106 99.8324C79.2162 99.1392 80.8738 98.7926 82.9836 98.7926H95.2806C97.3301 98.7926 98.9878 98.898 100.254 99.109C101.52 99.32 102.152 99.546 102.152 99.7872L101.248 103.585C100.465 103.494 98.6864 103.404 95.9136 103.314C93.1407 103.193 89.4184 103.133 84.7468 103.133L84.2495 103.087C82.8631 103.087 81.9287 103.374 81.4465 103.946C80.9643 104.489 80.7081 105.182 80.6779 106.026V106.795C80.6779 107.789 80.9492 108.543 81.4917 109.055C82.0644 109.537 82.9987 109.778 84.2947 109.778H94.3312C96.2602 109.778 97.9028 109.974 99.2591 110.366C100.615 110.758 101.655 111.481 102.379 112.536C103.102 113.561 103.464 115.083 103.464 117.102V117.826C103.464 120.086 102.876 121.91 101.7 123.296C100.555 124.683 98.5508 125.376 95.6875 125.376H80.6779Z" fill="white"/>
<path d="M2 75.2471H49.0029C46.7442 65.0291 63.6308 43.5174 82.2384 49.9709C97.1244 55.1337 101.348 69.0446 101.599 75.3547H148.817V63.9535C148.817 59.9953 145.949 58.719 144.515 58.5756L134.081 56.2093L130.424 47.4971C132.074 44.8798 135.716 39.1291 137.093 37.064C138.47 34.9988 136.233 32.3314 134.942 31.2558C130.353 26.6308 120.637 16.8645 118.485 14.7994C116.334 12.7343 114.076 13.5804 113.215 14.2616L111.817 15.1221L103.32 20.5L94.5 16.6279C93.9622 14.0107 92.7576 8.13081 92.2413 5.54942C91.725 2.96802 88.9428 2.10756 87.6163 2H63.3081C60.1244 2 58.8983 4.50969 58.6831 5.76453L56.3169 16.7355L47.4971 20.3924C45.2384 18.9583 40.0971 15.7029 37.6017 14.1541C35.1064 12.6052 32.6899 14.2258 31.7936 15.2297L29.8576 17.1657L14.3692 32.6541C12.5622 34.461 13.6163 37.4225 14.3692 38.6773L20.3924 47.3895L16.6279 56.4244C14.3333 56.8905 8.96977 57.9517 5.87209 58.468C2.77442 58.9843 2 61.9099 2 63.3081V75.2471Z" stroke="#FA5A00" stroke-width="3.01163"/>
</svg>
